<svg xmlns="http://www.w3.org/2000/svg" width="23.979" height="73" viewBox="0 0 23.979 73">
  <path id="Icon_simple-mongodb" data-name="Icon simple-mongodb" d="M33.463,28.951C30.648,12.039,24.01,6.482,23.3,4.356A32.2,32.2,0,0,1,21.664,0c0,.058-.009.094-.011.149v.04h0c0,.046-.007.076-.009.119V.353h0c0,.03,0,.055,0,.079V.511h-.007c0,.024,0,.055-.007.076V.651h0a.294.294,0,0,1,0,.064V.776h0c0,.03,0,.067,0,.1V.879c-.007.052-.013.1-.02.152v.024h0a.21.21,0,0,0-.007.037v.052h-.007v.067h-.011v.055h-.011v.064h-.009v.058h-.009v.052H21.51v.043H21.5v.055h-.009v.043h-.011v.04h-.007v.046h-.009a.024.024,0,0,0,0,.012v.03h-.007a.051.051,0,0,0,0,.018v.018h0a.178.178,0,0,0,0,.03c-.007.021-.016.043-.022.064v.006a.1.1,0,0,0-.011.021v.024H21.4v.024h-.011v.024h-.007v.03h-.013v.043h-.009v.012h-.009v.024h-.009v.033h-.009V2.1h-.013v.033h-.009v.024H21.3v.024H21.3v.03h-.011v.024h-.009V2.26h-.009v.024h-.013v.027h-.009V2.33h-.011v.024h-.009v.033h-.011V2.4h-.007v.024h-.013v.012h-.009v.03h-.009v.012h-.009V2.5h-.011v.018h-.007l0,.012v.012h0c0,.006,0,.006,0,.012v0h0a.055.055,0,0,1-.009.021v.009h0c-.011.018-.018.036-.027.055v0a.131.131,0,0,0-.02.03v.006h0s-.007.006-.007.009V2.7h0l-.007.009v0h0s0,.006-.007.012v.012H21.04l0,.006v.006h0c0,.006,0,.006,0,.009v.009h-.009a.017.017,0,0,1,0,.009V2.8h-.007v.012H21v.018h-.009v.024h-.011V2.829h-.011v.012h-.009v.018h-.011v.024h-.011V2.9h-.009v.018h-.009v.012h-.009V2.95h-.013v.012h-.009v.018h-.011v.012h-.009v.015h-.011v.03h0v.012h-.013v.015h-.009v.006h-.009v.012h-.011v.03H20.8v.012h-.011v.012h-.009v.018h-.011v.012h-.011v.012h-.009v.012h-.009v.03H20.73v.015h-.013v.012h-.009v.012H20.7v.018h-.009v.012h-.011v.021h-.009v.012h-.013v.018h0v.012h-.009V3.37H20.63v.012h-.009V3.4H20.61v.012H20.6a.011.011,0,0,0,0,.006v.006h0l-.009.012a.046.046,0,0,1-.009.009v.018H20.57V3.48h-.009v.012h-.009V3.5h-.007l-.007.009v.009h0l0,.006v.009h0a.3.3,0,0,1-.031.049.4.4,0,0,1-.027.03.934.934,0,0,0-.087.1.524.524,0,0,0-.049.052v0h0l-.109.119v0c-.053.061-.1.119-.165.189v0h0c-.127.143-.261.3-.414.484v0h0c-.377.45-.824,1.028-1.326,1.728l-.033.046-.009.012c-3.031,4.28-7.806,13.2-8.31,27.609-.045,1.192-.036,2.351.013,3.48v.027A42.344,42.344,0,0,0,13.151,51.93v0a41.417,41.417,0,0,0,2.063,4.274v0a35.371,35.371,0,0,0,5.6,7.683c.983,3.112.891,8.453.891,8.453L23.143,73a49.725,49.725,0,0,1,.118-7.671,5.481,5.481,0,0,1,.778-2.014,21.146,21.146,0,0,0,1.776-1.962c.04-.058.062-.11.1-.164,3.389-4.313,9.72-14.935,7.55-32.239Z" transform="translate(-9.927)"/>
</svg>
