<svg xmlns="http://www.w3.org/2000/svg" width="60" height="60" viewBox="0 0 60 60">
  <path id="Icon_simple-mysql" data-name="Icon simple-mysql" d="M41.013,12.114a1.931,1.931,0,0,0-.685.121v.048h.035a8.664,8.664,0,0,0,.535,1.005c.135.394.25.788.385,1.178l.035-.055a1.7,1.7,0,0,0,.35-1.226c-.1-.173-.115-.346-.2-.515-.1-.247-.315-.368-.45-.563ZM14.425,60.69H12.107q-.112-8.626-.675-16.236h-.02L7.887,60.69H6.125l-3.5-16.236H2.6Q2.214,51.76,2.112,60.69H0Q.206,49.832,1.025,40.33H3.9L7.238,55.292h.02L10.625,40.33h2.737q.908,11.128,1.07,20.36ZM24.467,45.668q-1.417,11.294-3.73,16.42-1.807,3.954-3.958,3.95a2.921,2.921,0,0,1-1.415-.508V63.712a4.4,4.4,0,0,0,.965.1,1.936,1.936,0,0,0,1.618-.817,3.644,3.644,0,0,0,.737-2.227,20.813,20.813,0,0,0-.575-3.475L15.575,45.668H17.85l1.817,8.689a16.725,16.725,0,0,1,.512,4.135,78.931,78.931,0,0,0,2.088-12.823h2.2ZM55.28,60.69H48.7V40.33h2.212V58.186H55.28Zm-8.3.5-2.54-1.841a7.188,7.188,0,0,0,.638-.92q1.624-2.794,1.62-8.295,0-10.106-5.388-10.11a4.572,4.572,0,0,0-4.125,2.566q-1.613,2.805-1.615,8.265,0,5.368,1.435,7.879A4.283,4.283,0,0,0,40.962,61a4.481,4.481,0,0,0,1.813-.361l3.313,2.842.9-2.29Zm-8.23-4.573a17.641,17.641,0,0,1-.843-6.391q0-7.693,3.175-7.695a2.579,2.579,0,0,1,2.442,1.841,17.559,17.559,0,0,1,.84,6.344q0,7.754-3.175,7.761a2.58,2.58,0,0,1-2.445-1.841ZM34.6,55.049a6.729,6.729,0,0,1-1.29,4.256,4.152,4.152,0,0,1-3.46,1.657,5.6,5.6,0,0,1-3.932-1.9l.592-1.752a5.158,5.158,0,0,0,2.975,1.208,2.468,2.468,0,0,0,1.957-.81,3.37,3.37,0,0,0,.75-2.264,3.967,3.967,0,0,0-1.62-3.111c-.97-.784-2.907-2.419-2.907-2.419a5.727,5.727,0,0,1-1.58-4.333,6.342,6.342,0,0,1,1.175-3.995,3.667,3.667,0,0,1,3.05-1.528,4.945,4.945,0,0,1,3.5,1.509l-.533,1.752a5.034,5.034,0,0,0-2.66-.847,1.919,1.919,0,0,0-1.635.758,3.1,3.1,0,0,0-.62,1.929,3.988,3.988,0,0,0,1.665,3.129C31.015,49.085,33,50.76,33,50.76a5.575,5.575,0,0,1,1.62,4.3ZM58.06,33.5a5.476,5.476,0,0,0-3.243.692c-.25.147-.65.147-.685.615a5.222,5.222,0,0,1,.275.788,5.648,5.648,0,0,0,.865,1.5,15.36,15.36,0,0,0,1.067,1.141c.65.589,1.388.939,2.025,1.532.362.346.732.784,1.1,1.152.183.184.3.515.535.633v-.074c-.115-.221-.15-.541-.263-.788-.167-.247-.335-.468-.5-.711A10.719,10.719,0,0,0,57.5,37.5c-.535-.538-1.7-1.289-1.925-2.191l-.033-.052a4.986,4.986,0,0,0,1.15-.39c.568-.221,1.088-.173,1.675-.39.265-.1.532-.221.8-.346v-.221c-.3-.442-.525-1.042-.835-1.454a25.4,25.4,0,0,0-2.76-3.03A19.958,19.958,0,0,0,53.83,28.2c-.2-.147-.535-.221-.65-.468a11.521,11.521,0,0,1-.687-1.892c-.48-1.355-.95-2.853-1.368-4.282-.3-.965-.482-1.926-.85-2.809a22.287,22.287,0,0,0-6.465-9.2,6.483,6.483,0,0,0-2.14-1.009c-.417-.029-.835-.074-1.25-.1-.275-.173-.54-.641-.775-.865-.95-.884-3.41-2.8-4.11-.265-.45,1.6.667,3.174,1.055,3.984a12.618,12.618,0,0,1,.85,1.841c.118.427.15.865.268,1.311.265,1.082.517,2.29.868,3.3a13.206,13.206,0,0,0,.618,1.521c.135.269.365.394.417.836a9.8,9.8,0,0,0-.385,1.841,15.626,15.626,0,0,0,.485,8.284c.267.611.9,1.966,1.757,1.447.75-.442.585-1.841.8-3.074a2.382,2.382,0,0,1,.12-.688v.055c.235.692.47,1.351.685,2.043a12.934,12.934,0,0,0,2.168,3.3c.4.442.717,1.208,1.217,1.48V34.7H46.42a2.78,2.78,0,0,0-.385-.49,12.526,12.526,0,0,1-.875-1.473,37.365,37.365,0,0,1-1.868-4.484c-.275-.773-.505-1.605-.725-2.367-.1-.295-.1-.736-.268-.884a9.928,9.928,0,0,0-.8,1.668,20.1,20.1,0,0,0-.47,3.718c-.068.026-.035,0-.068.052-.535-.191-.717-1.009-.918-1.694a15.515,15.515,0,0,1-.15-6.572,7.711,7.711,0,0,0,.417-2.636c-.1-.468-.435-.736-.618-1.116a10.9,10.9,0,0,1-.6-1.572c-.4-1.377-.6-2.9-1.035-4.278a14.437,14.437,0,0,0-.835-1.889,13.533,13.533,0,0,1-.92-1.914,1.616,1.616,0,0,1-.068-1.009.369.369,0,0,1,.235-.331c.22-.265.838.081,1.055.228a8,8,0,0,1,1.655,1.23c.235.243.487.711.788.832h.35c.535.173,1.138.052,1.638.269a9.781,9.781,0,0,1,2.4,1.694A21.061,21.061,0,0,1,49.575,20.1c.2.567.288,1.086.47,1.675.35,1.215.782,2.441,1.138,3.615a19.5,19.5,0,0,0,1.19,3.3c.25.515,1.255.784,1.7,1.053a10.406,10.406,0,0,1,1.15.692c.575.515,1.135,1.1,1.675,1.671.275.28,1.108.895,1.158,1.392Z" transform="translate(0 -6.039)"/>
</svg>
