<svg xmlns="http://www.w3.org/2000/svg" width="60" height="60" viewBox="0 0 60 60">
  <path id="Icon_simple-jquery" data-name="Icon simple-jquery" d="M3.829,14.768C-1.485,22.694-.827,33,3.236,41.422c.093.205.2.4.3.6a4.252,4.252,0,0,0,.193.387,2.218,2.218,0,0,0,.118.216c.065.135.135.265.2.4l.393.689c.073.127.143.252.225.379.138.244.3.486.443.73.065.1.125.2.2.3q.364.594.776,1.154c.2.278.39.548.6.819.068.1.143.2.213.3l.553.7c.068.081.135.174.208.257.245.307.506.606.766.907,0,.005.008.01.013.018a8.008,8.008,0,0,0,1.061,1.143c.2.213.4.426.613.634l.253.252c.278.27.556.541.849.8.005,0,.008.005.013.008l.143.13c.255.231.513.463.776.676l.313.273c.213.177.433.346.651.52l.34.27c.233.182.481.361.718.538.088.065.175.13.265.19l.073.06.7.481.3.208c.368.244.733.476,1.1.7.105.055.21.114.308.177.27.161.551.325.824.476.15.088.305.164.461.244.188.109.383.216.583.325a.794.794,0,0,1,.14.06c.083.039.16.081.24.122.3.156.613.3.939.452a2,2,0,0,1,.19.088c.36.164.721.32,1.094.473.085.026.175.07.263.1.338.133.686.268,1.029.4l.125.047c.383.135.761.265,1.149.39.09.026.183.06.278.086a11.827,11.827,0,0,0,1.184.353c25.682,4.86,33.146-16.032,33.146-16.032-6.27,8.477-17.4,10.712-27.935,8.225-.39-.094-.781-.224-1.174-.343q-.715-.219-1.419-.47l-.155-.062c-.34-.12-.668-.252-1-.385q-.136-.058-.275-.107c-.368-.153-.726-.312-1.081-.476-.078-.026-.143-.062-.22-.094q-.454-.217-.9-.442c-.093-.042-.175-.086-.265-.135-.235-.114-.471-.244-.7-.369q-.237-.118-.468-.249c-.283-.156-.566-.325-.849-.486a3.285,3.285,0,0,0-.28-.172q-.554-.34-1.1-.7-.151-.1-.3-.205-.4-.255-.781-.535c-.088-.06-.168-.125-.258-.19q-.373-.268-.736-.551c-.105-.088-.218-.172-.33-.26-.22-.179-.443-.351-.663-.541l-.3-.244q-.425-.356-.836-.73a.652.652,0,0,0-.093-.078l-.869-.821-.25-.244c-.205-.216-.416-.424-.626-.637l-.243-.26q-.4-.41-.773-.839l-.038-.042c-.265-.3-.523-.608-.783-.92-.068-.081-.13-.166-.2-.252l-.566-.72q-.433-.576-.851-1.164C5.4,30.132,3.281,18.7,7.959,9.318M20.317,8.091c-3.852,5.741-3.635,13.418-.636,19.489a23.854,23.854,0,0,0,1.695,2.942,13.7,13.7,0,0,0,1.982,2.562c.268.317.558.624.861.933l.225.234q.428.429.876.845l.038.034q.506.459,1.036.889c.085.06.158.13.24.19.35.281.7.551,1.069.819l.038.023c.155.117.32.223.5.338.07.047.15.109.225.156.265.177.526.343.793.512.043.018.08.042.12.06.225.143.471.281.706.408.083.052.163.091.248.14.168.086.333.177.493.265l.08.036c.338.172.683.333,1.021.494.085.034.158.062.23.1.278.125.561.244.839.356.125.044.243.1.36.135.255.1.523.19.776.281l.35.117a8.233,8.233,0,0,0,1.121.335c19.825,3.412,24.415-12.441,24.415-12.441-4.133,6.175-12.13,9.117-20.653,6.819q-.565-.152-1.121-.338c-.12-.034-.225-.073-.34-.109-.26-.094-.528-.185-.781-.283l-.36-.14c-.28-.117-.566-.226-.839-.351-.085-.039-.163-.065-.228-.1-.35-.164-.7-.325-1.044-.5l-.516-.278-.3-.156c-.23-.125-.443-.255-.663-.39a1.535,1.535,0,0,1-.155-.088c-.265-.172-.541-.338-.793-.515-.085-.049-.163-.109-.243-.161l-.521-.353c-.36-.26-.713-.541-1.069-.811-.08-.075-.158-.138-.235-.205A24.726,24.726,0,0,1,22.052,18.4a19.243,19.243,0,0,1,1.4-14.923M34.182,3.1a12.392,12.392,0,0,0-.926,11.578,15.992,15.992,0,0,0,9.021,8.745c.163.065.32.12.488.182l.22.07c.23.075.463.164.7.218,10.954,2.193,13.917-5.84,14.716-7.02-2.608,3.888-6.981,4.821-12.345,3.467a11.8,11.8,0,0,1-1.292-.416,15.555,15.555,0,0,1-1.544-.66,16.225,16.225,0,0,1-2.7-1.715C35.711,13.77,32.735,6.556,35.869.679" transform="translate(-0.016 -0.679)"/>
</svg>
