<svg xmlns="http://www.w3.org/2000/svg" width="60" height="60" viewBox="0 0 60 60">
  <path id="Icon_simple-django" data-name="Icon simple-django" d="M31.278,0H43.917V45.414A106.7,106.7,0,0,1,27.5,46.752c-15.432,0-23.474-5.415-23.474-15.8,0-10,8.536-16.5,21.751-16.5a25.728,25.728,0,0,1,5.5.51Zm0,22.858a15.89,15.89,0,0,0-4.268-.51c-6.4,0-10.094,3.058-10.094,8.41,0,5.225,3.53,8.09,10.014,8.09a37.428,37.428,0,0,0,4.348-.255V22.856Zm32.751-7.708V37.894c0,7.835-.738,11.6-2.954,14.843-2.052,3.123-4.761,5.1-10.342,7.263L39,55.667c5.582-2.038,8.291-3.823,10.014-6.563,1.807-2.8,2.38-6.053,2.38-14.588V15.148H64.029ZM51.39.053H64.029V10.118H51.39Z" transform="translate(-4.029)"/>
</svg>
