<svg xmlns="http://www.w3.org/2000/svg" width="60" height="60" viewBox="0 0 60 60">
  <path id="Icon_simple-postgresql" data-name="Icon simple-postgresql" d="M43.706,0a26.86,26.86,0,0,0-7.1,1.008l-.162.05A28.985,28.985,0,0,0,32.038.645,15.078,15.078,0,0,0,24.292,2.5,30.743,30.743,0,0,0,13.391.84,13.491,13.491,0,0,0,4.243,4.55C1.7,7.163.355,11.205.638,16.705A47.778,47.778,0,0,0,1.9,23.9a82.814,82.814,0,0,0,3.074,10.38c1.3,3.425,2.716,6.5,4.935,8.59a6.159,6.159,0,0,0,4.432,1.855,5.778,5.778,0,0,0,3.389-1.38,4.05,4.05,0,0,0,1.459,1.128,7.206,7.206,0,0,0,1.752.665,12.536,12.536,0,0,0,5.02.25,9.7,9.7,0,0,0,2.255-.675c.028.825.062,1.633.1,2.45a22.613,22.613,0,0,0,.974,7.08,9.113,9.113,0,0,0,1.873,3.665A7.642,7.642,0,0,0,38.382,59.8c2.19-.455,4.976-1.275,6.826-3.83,1.83-2.525,2.654-6.148,2.817-12.023.041-.318.09-.588.142-.84l.435.037h.052a15.725,15.725,0,0,0,6.991-1.175,9.486,9.486,0,0,0,4.329-3.208,3.154,3.154,0,0,0,.618-1.608,3.221,3.221,0,0,0-1.149-2.563c-1.533-1.13-2.5-.7-3.53-.493a16.63,16.63,0,0,1-3.1.365A56.587,56.587,0,0,0,59.149,19.85a30.976,30.976,0,0,0,1.16-7.368c.034-2.178-.149-4.105-1.495-5.773A18.707,18.707,0,0,0,44.131.01c-.142,0-.283-.005-.425,0Zm-.121,1.6c4.324-.04,9.849,1.138,13.815,6.055.892,1.105,1.157,2.72,1.126,4.71A29.913,29.913,0,0,1,57.42,19.34a55.235,55.235,0,0,1-7.465,16.22,1.967,1.967,0,0,0,.407.215c.747.3,2.451.558,5.85-.12a2.4,2.4,0,0,1,2.131.188,1.283,1.283,0,0,1,.472,1.063,1.73,1.73,0,0,1-.335.84,8.768,8.768,0,0,1-3.615,2.613,14.612,14.612,0,0,1-5.453,1.033,8.6,8.6,0,0,1-2.538-.283l-.046-.017c-.283,2.65-.935,7.883-1.361,10.27a8.279,8.279,0,0,1-2.072,4.6,9.29,9.29,0,0,1-4.9,2.285,6.8,6.8,0,0,1-5.883-1.07,7.78,7.78,0,0,1-2.175-3.218,9.157,9.157,0,0,1-.479-2.315c-.119-1-.206-2.213-.265-3.585q-.118-3.152-.077-6.308a7.986,7.986,0,0,1-4,1.9,10.864,10.864,0,0,1-4.306-.225,5.975,5.975,0,0,1-1.34-.5,2.453,2.453,0,0,1-1.134-.993,1.364,1.364,0,0,1-.147-.953,1.523,1.523,0,0,1,.562-.828,5.064,5.064,0,0,1,2.2-.833,7.211,7.211,0,0,0,2.894-.925,15.516,15.516,0,0,0,1.384-1.555q0-.051-.008-.1a7.81,7.81,0,0,1-3.427-.9c-.387.4-2.36,2.42-4.767,5.23a4.745,4.745,0,0,1-3.311,1.9,4.393,4.393,0,0,1-3.154-1.38c-1.812-1.708-3.257-4.645-4.517-7.965A81.366,81.366,0,0,1,3.54,23.455,48.7,48.7,0,0,1,2.318,16.54C2.048,11.335,3.3,7.828,5.454,5.615a11.763,11.763,0,0,1,7.986-3.21A29.409,29.409,0,0,1,24.505,4.24a12.887,12.887,0,0,1,7.452-2,19.6,19.6,0,0,1,4.332.545l.052-.023a18.081,18.081,0,0,1,1.9-.535,25.531,25.531,0,0,1,5.337-.627Zm.392,1.675H43.6a23.186,23.186,0,0,0-4.391.48A19.219,19.219,0,0,1,46.553,9.38a20.97,20.97,0,0,1,2.917,4.8,11.262,11.262,0,0,1,.582,1.65,3.333,3.333,0,0,1,.1.59,1.068,1.068,0,0,1-.031.36c0,.008-.013.025-.015.032.077,2.19-.482,3.675-.549,5.765-.052,1.515.348,3.3.446,5.238a9.68,9.68,0,0,1-1.355,5.8c.1.12.2.24.294.36a53.8,53.8,0,0,0,6.8-15.058,28.621,28.621,0,0,0,1.049-6.58,6.313,6.313,0,0,0-.76-3.65C52.578,4.4,47.9,3.3,43.976,3.273Zm-12.343.64a10.552,10.552,0,0,0-6.888,2.238,12.361,12.361,0,0,0-3.608,5.213A21.539,21.539,0,0,0,19.815,17.4l.033-.02a13.6,13.6,0,0,1,3.422-1.29,6.965,6.965,0,0,1,3.95.1,4.38,4.38,0,0,1,2.685,3.288c1.814,8.143-.564,11.17-1.44,13.455a23.52,23.52,0,0,0-.853,2.533,2.6,2.6,0,0,1,.332-.065,2.891,2.891,0,0,1,1.392.27,3.487,3.487,0,0,1,2,2.66.817.817,0,0,1,.052.318q-.147,4.672.033,9.345c.059,1.345.147,2.53.258,3.465a9.3,9.3,0,0,0,.368,1.883,6.329,6.329,0,0,0,1.683,2.56c.871.71,2.121,1.185,4.4.71A7.6,7.6,0,0,0,42.149,54.8a6.659,6.659,0,0,0,1.613-3.72c.466-2.625,1.4-10.238,1.518-11.67a4.667,4.667,0,0,1,.469-2.543,3.019,3.019,0,0,1,1.422-1.263,4.936,4.936,0,0,1,.662-.233q-.3-.416-.626-.813a11.082,11.082,0,0,1-1.716-2.748q-.311-.614-.662-1.208c-.343-.6-.776-1.35-1.229-2.193a26.776,26.776,0,0,1-2.407-5.725c-.51-1.99-.585-4.05.724-5.5,1.16-1.29,3.2-1.825,6.252-1.525-.09-.263-.144-.48-.3-.83a19.423,19.423,0,0,0-2.683-4.41,16.817,16.817,0,0,0-13.261-6.5h-.3Zm-17.116.13c-.327,0-.655.01-.979.028A9.995,9.995,0,0,0,6.714,6.76c-1.763,1.81-2.922,4.778-2.67,9.69a51.253,51.253,0,0,0,1.183,6.63A80.389,80.389,0,0,0,8.17,33.035c1.219,3.218,2.7,6.018,4.1,7.343a2.669,2.669,0,0,0,1.876.908,3.014,3.014,0,0,0,2.054-1.3q2.248-2.631,4.664-5.12A8.6,8.6,0,0,1,17.854,27a30.152,30.152,0,0,0,.271-4.94C18.094,20.725,18,19.84,18,19.288q0-.024,0-.048v-.012l0-.015v0a24.073,24.073,0,0,1,1.526-8.44,14.379,14.379,0,0,1,3.407-5.28,29.983,29.983,0,0,0-7.432-1.42q-.489-.024-.979-.025ZM46.466,17.25c-1.75.023-2.732.46-3.247,1.033-.729.813-.8,2.238-.345,3.993a25.656,25.656,0,0,0,2.26,5.355c.438.818.863,1.553,1.206,2.15a14.965,14.965,0,0,1,.752,1.388,7.939,7.939,0,0,0,.459.905,8.191,8.191,0,0,0,.729-4.17c-.09-1.758-.51-3.555-.448-5.375.07-2.128.5-3.513.541-5.158a15.38,15.38,0,0,0-1.907-.12Zm-21.218.288a7.48,7.48,0,0,0-1.587.185,12.245,12.245,0,0,0-2.971,1.123,6.252,6.252,0,0,0-.9.57l-.057.05c.015.365.09,1.25.121,2.553a31.817,31.817,0,0,1-.289,5.21,6.685,6.685,0,0,0,6.339,7.82,23.951,23.951,0,0,1,.941-2.705c1.046-2.735,3.105-4.73,1.371-12.515a2.485,2.485,0,0,0-1.618-2.08,3.9,3.9,0,0,0-1.35-.21Zm20.4.51h.129a2.328,2.328,0,0,1,.464.055,1.078,1.078,0,0,1,.356.138.41.41,0,0,1,.193.275l0,.02h0a.586.586,0,0,1-.09.338,1.673,1.673,0,0,1-.283.375,1.76,1.76,0,0,1-.995.53,1.612,1.612,0,0,1-1.392-.553.643.643,0,0,1-.162-.318.417.417,0,0,1,.108-.32.987.987,0,0,1,.3-.225,2.938,2.938,0,0,1,.961-.29,3.429,3.429,0,0,1,.412-.032Zm-20.151.42a3.2,3.2,0,0,1,.428.032,2.885,2.885,0,0,1,1.013.305,1.144,1.144,0,0,1,.343.265.547.547,0,0,1,.139.425.746.746,0,0,1-.193.385,1.655,1.655,0,0,1-.368.325,1.688,1.688,0,0,1-1.154.283,1.893,1.893,0,0,1-1.082-.57,1.778,1.778,0,0,1-.3-.41.683.683,0,0,1-.106-.443.649.649,0,0,1,.492-.488,2.3,2.3,0,0,1,.791-.1ZM48.844,36.825l-.008,0c-.379.132-.691.188-.953.3a1.153,1.153,0,0,0-.616.535,3.128,3.128,0,0,0-.26,1.665,1.333,1.333,0,0,0,.381.175,7.4,7.4,0,0,0,2,.2,13.793,13.793,0,0,0,4.742-.875,10.216,10.216,0,0,0,2.43-1.538h0c-3.59.72-5.618.528-6.862.03a3.411,3.411,0,0,1-.856-.5Zm-20.7.235H28.1c-.137.013-.335.058-.719.47a18.271,18.271,0,0,1-1.951,2.16A8.423,8.423,0,0,1,21.8,40.948a5.052,5.052,0,0,0-1.188.36.669.669,0,0,0,.18.133,4.377,4.377,0,0,0,.933.355,9.26,9.26,0,0,0,3.595.2,6.178,6.178,0,0,0,4.141-2.6,1.256,1.256,0,0,0,.062-1.2,1.874,1.874,0,0,0-.853-.983,1.722,1.722,0,0,0-.526-.15Z" transform="translate(-0.601)"/>
</svg>
