<svg xmlns="http://www.w3.org/2000/svg" width="60" height="60" viewBox="0 0 60 60">
  <path id="Icon_awesome-react" data-name="Icon awesome-react" d="M49.008,21.695q-.949-.362-1.9-.683c.105-.5.2-.991.293-1.487,1.441-7.982.492-14.4-2.707-16.513-3.082-2.022-8.109.08-13.2,5.143-.5.5-1,1.018-1.465,1.54-.316-.348-.645-.7-.973-1.031C23.73,3.254,18.387.977,15.188,3.106c-3.07,2.036-3.984,8.075-2.7,15.629.129.75.27,1.487.434,2.236-.75.241-1.488.509-2.18.79C4.488,24.239,0,28.15,0,32.194c0,4.178,4.781,8.37,11.285,10.915.527.2,1.055.4,1.594.576-.176.8-.328,1.594-.469,2.411-1.23,7.433-.27,13.325,2.8,15.347,3.164,2.089,8.484-.054,13.664-5.236.41-.415.82-.844,1.23-1.3.516.576,1.055,1.125,1.594,1.661,5.016,4.928,9.973,6.924,13.031,4.9,3.164-2.089,4.2-8.424,2.859-16.138q-.158-.884-.352-1.808c.375-.121.738-.254,1.1-.388C55.1,40.578,60,36.439,60,32.194c0-4.058-4.617-8-10.992-10.5ZM33.152,10.325C37.512,5.986,41.578,4.285,43.43,5.5c1.98,1.3,2.742,6.549,1.5,13.446-.082.455-.164.9-.27,1.339a53.1,53.1,0,0,0-7.887-1.42,66.926,66.926,0,0,0-4.992-7.111c.457-.5.9-.964,1.371-1.433ZM19.594,39.145c.6,1.165,1.207,2.33,1.852,3.469a46.987,46.987,0,0,1-5.437-1c.516-1.928,1.16-3.924,1.91-5.96.539,1.179,1.09,2.344,1.676,3.5ZM16.043,23.034a51.636,51.636,0,0,1,5.344-1.045c-.621,1.112-1.23,2.25-1.8,3.4s-1.137,2.3-1.664,3.482c-.738-2-1.359-3.951-1.875-5.839Zm3.211,9.227c.773-1.848,1.617-3.656,2.508-5.437s1.852-3.509,2.859-5.21c1.758-.147,3.551-.228,5.379-.228s3.633.08,5.379.228q1.494,2.531,2.848,5.183c.9,1.768,1.746,3.576,2.543,5.41q-1.178,2.772-2.531,5.464c-.891,1.781-1.84,3.509-2.836,5.223-1.746.147-3.562.214-5.4.214s-3.621-.067-5.344-.187Q23.127,40.37,21.773,37.7c-.9-1.781-1.734-3.589-2.52-5.437Zm21.164,6.857c.6-1.179,1.16-2.37,1.711-3.576.75,1.942,1.406,3.911,1.98,5.933A45.634,45.634,0,0,1,38.6,42.546C39.234,41.421,39.832,40.269,40.418,39.118Zm1.688-10.245c-.551-1.179-1.113-2.357-1.7-3.509s-1.172-2.263-1.793-3.375a47.841,47.841,0,0,1,5.379,1.071c-.539,1.982-1.172,3.911-1.887,5.812ZM30.023,13.807A57.844,57.844,0,0,1,33.492,18.6a67.274,67.274,0,0,0-6.973,0C27.668,16.873,28.852,15.266,30.023,13.807ZM16.43,5.6c1.969-1.312,6.34.562,10.945,5.223.293.295.586.616.891.937a67.21,67.21,0,0,0-5.027,7.111,54.652,54.652,0,0,0-7.875,1.393c-.152-.683-.281-1.379-.41-2.076C13.852,11.7,14.578,6.816,16.43,5.6ZM13.559,40.9c-.492-.161-.973-.335-1.453-.522A22.86,22.86,0,0,1,4.723,36.2a6.162,6.162,0,0,1-2.2-4c0-2.451,3.7-5.585,9.047-7.714.668-.268,1.348-.509,2.027-.737a77.7,77.7,0,0,0,2.871,8.517A79.885,79.885,0,0,0,13.559,40.9ZM27.223,54.023a21.261,21.261,0,0,1-6.609,4.727,4.6,4.6,0,0,1-4.137.174c-1.863-1.232-2.637-5.96-1.582-12.321.129-.75.27-1.5.434-2.236a51.8,51.8,0,0,0,7.957,1.312,69.8,69.8,0,0,0,5.062,7.151C27.973,53.246,27.6,53.648,27.223,54.023Zm2.871-3.254c-1.2-1.473-2.391-3.107-3.551-4.861,1.125.054,2.285.08,3.457.08,1.207,0,2.391-.027,3.563-.094a56.983,56.983,0,0,1-3.469,4.875ZM45.41,54.787a6.248,6.248,0,0,1-1.934,4.192c-1.863,1.232-5.836-.375-10.125-4.58-.492-.482-.984-1-1.488-1.54a65.752,65.752,0,0,0,4.945-7.178A51.107,51.107,0,0,0,44.8,44.274c.117.549.223,1.1.316,1.634A27.83,27.83,0,0,1,45.41,54.787Zm2.133-14.4c-.328.121-.656.241-1,.348a74,74,0,0,0-2.988-8.544A73.79,73.79,0,0,0,46.43,23.77c.609.2,1.2.415,1.758.629,5.461,2.143,9.293,5.33,9.293,7.767,0,2.625-4.09,6.013-9.937,8.223ZM30,38.381c2.965,0,5.367-2.745,5.367-6.134s-2.4-6.134-5.367-6.134-5.367,2.745-5.367,6.134S27.035,38.381,30,38.381Z" transform="translate(0 -2.251)"/>
</svg>
