<svg xmlns="http://www.w3.org/2000/svg" width="60" height="60" viewBox="0 0 60 60">
  <path id="Icon_awesome-python" data-name="Icon awesome-python" d="M58.9,24.816c-1.031-4.138-2.987-7.259-7.152-7.259h-5.37v6.348a9.185,9.185,0,0,1-8.946,9.08h-14.3a7.3,7.3,0,0,0-7.152,7.272V53.891c0,3.884,3.375,6.161,7.152,7.272a24.066,24.066,0,0,0,14.3,0c3.6-1.045,7.152-3.147,7.152-7.272V48.44H30.294V46.619H51.748c4.165,0,5.705-2.906,7.152-7.259,1.5-4.486,1.433-8.8,0-14.544ZM38.329,52.07a2.726,2.726,0,1,1-2.692,2.719A2.706,2.706,0,0,1,38.329,52.07ZM22.473,31.191h14.3a7.211,7.211,0,0,0,7.152-7.272V10.272c0-3.884-3.268-6.79-7.152-7.446a44.145,44.145,0,0,0-14.3.013c-6.053,1.071-7.152,3.308-7.152,7.446v5.451H29.637v1.821H9.951A8.941,8.941,0,0,0,1,24.816,26.823,26.823,0,0,0,1,39.36c1.018,4.232,3.442,7.259,7.607,7.259h4.915V40.084A9.093,9.093,0,0,1,22.473,31.191Zm-.9-19.1a2.726,2.726,0,1,1,2.692-2.719,2.706,2.706,0,0,1-2.692,2.719Z" transform="translate(0 -2.25)"/>
</svg>
