<svg xmlns="http://www.w3.org/2000/svg" width="60" height="60" viewBox="0 0 60 60">
  <path id="Icon_simple-flask" data-name="Icon simple-flask" d="M17.929,55.814c-2.285-2.018-4.725-3.952-6.39-6.67a56.266,56.266,0,0,1-8.05-16.19c-1.115-3.8-1.5-7.869-2.935-11.518C-.95,18.79.812,15.892,3.4,15.049c1.15-.247,3.18-1.466.732-.594-2.195,1.8-2.407-1.639-.157-1.855A2.011,2.011,0,0,0,5.55,9.693c-1.647-1.205,4-2.531,1.157-4.327C3.752,1.785,10.849,1.1,9.1,5.159c-.417,3.125,4.96-.572,3.712,3.035,1.267,1.735,4.75.4,4.662,2.828,1.85.14,2.482,1.883,4.217,2.018,1.8.911,5.057,1.625,5.667,3.9-1.782,1.583-5.912-3.268-6.11,1.113.537,6.474.4,13.141,2.512,19.3,1,3.733,3.422,6.67,5.61,9.579a25,25,0,0,0,7.817,6.538,29.747,29.747,0,0,0,8.032,2.786c1.12-.961,3.1-4.532,4.845-3.027.082,1.693-3.47,3.54-.167,3.352,1.94-.656,3.285,1.681,4.882-.426,1.47,1.953,6.115-1.25,5.067,2.746-1.415,1.02-3.48.4-4.9,1.81-2.337-1.309-4.2,1.171-6.787.858a44.431,44.431,0,0,1-8.71.816c-4.78-.423-9.662-.6-14.21-2.466a27.793,27.793,0,0,1-7.312-4.106Zm4.037,1.962c2.5,1.211,4.947,2.489,7.687,2.875,4.35.675,8.842,1.721,13.207.768-1.975-1-4.02.392-5.987-.715-2.36.569-4.892-.146-7.292-.5-2.73-1.362-5.675-2.3-8.23-4.069-3.192-1.306,1.65,1.676,2.515,1.92,1.995,1.27-2.195-.653-2.787-1.18-1.67-1.051-1.885-.832-.165.235.347.227.69.465,1.05.659ZM17.207,54c2.425,1.006-.01-1.911-1.122-1.743-.492-.956-1.88-1.561-.9-2.074-1.762.684-1.845-2.606-2.675-2.138-1.862-.659-.725-3-2.942-4.428-.2-1.513-2.2-2.825-2.845-5.106-.282-1.166-2.262-4.52-1.045-1.4,1.035,3,2.857,5.577,4.375,8.147,1.175,2.447,2.567,5.005,4.712,6.53.725.779,1.42,1.97,2.442,2.214Zm-6.982-8.6C10.307,45,10.667,46.3,10.224,45.408Zm9.885,9.8C20.647,54.94,19.337,54.872,20.109,55.209Zm1.315.538C21.289,55,20.824,56.161,21.424,55.747Zm1.65.771C23.857,55.679,21.864,55.99,23.074,56.517Zm2.82,1.766C26.371,57.493,24.369,57.983,25.894,58.283Zm-5.42-4.24C21.692,53.16,18.9,54.032,20.474,54.043Zm1.235.689C21.674,54.267,21.269,54.942,21.709,54.732Zm6.175,4.321c.995.7,5.8,1.541,2.79.289C30.171,59.46,25.1,57.734,27.884,59.054Zm-9.8-8.559C17.984,50.027,16.542,49.976,18.082,50.495Zm2.875,1.878C21.707,51.787,19.4,51.924,20.957,52.372Zm2.417,1.662C24.449,53.58,21.632,53.578,23.374,54.034Zm-6.462-4.969c1.165,1,4.7.129,1.785-.6-1.325-.793-4.317-1.334-2.28.476Zm8.1,5.543C25.5,53.684,22.977,54.079,25.012,54.609Zm-2.46-2.194c2.85.905-2.395-2.018-.7-.331l.375.191.325.14Zm4.935,3.2C30.184,55.64,25.049,55.2,27.486,55.612Zm-11.612-8.3C15.769,46.753,15.209,47.364,15.874,47.317ZM32.049,58.482C32.121,57.465,31.169,59.239,32.049,58.482Zm-11.572-8C20.314,49.943,19.634,50.456,20.477,50.478Zm-4.347-3.514C17.679,46.86,14.009,46.2,16.129,46.964Zm-5.15-3.733C10.787,42.4,9.294,41.734,10.979,43.231ZM24.5,52.857C24.214,52.493,24.364,52.936,24.5,52.857Zm8.415,5.787C32.889,58.092,32.456,58.855,32.914,58.644Zm-9.16-6.65C23.9,51.279,22.432,51.778,23.754,51.994Zm-6.267-4.462C18.637,47.4,15.639,46.661,17.487,47.533Zm10.6,7.39C29.886,54.124,26.341,54.53,28.091,54.923Zm-5.517-4.2c2.07.3-2.462-1.578-.452-.168Zm7.192,4.955c1.932-1.295,1.295,3.032,3.277.364,1.955-1.6-1.687,1.981.722.289,1.742-1.309,4.317.617,5.942,1.247,1.17-.064,2.307,1.135,3.507.406,2.307-.7-4.515-1.037-2.725-2.27-2.112.687-3.675-.824-4.712-2.34-2.37-.614-5.11-1.97-6.292-4.321-.48-.883.7.123-.415-1.317a19.421,19.421,0,0,1-3.1-4.77c-1.142-.684-1.275-2.7-1.392-.067.01-1.662-1.382-2.78-1.722-2.315,0-1.6,1.49-.8.442-1.981-.225-1.659-.967-3.388-1.19-5.26-.345-.9-.05-2.833-1.182-.79-.412,2.158-.137-2.654.5-1.065.842-1.623-.3-1.429-.35-1.205.55-1.368.35-3.307-.142-2.567.292-1.449.462-5.33-.437-4.641.545-1.513,1.035-6.931-1.335-4.865a9.153,9.153,0,0,0-3.407.83c2.465,1.522-.247.549-1.25.308-.13,1.407-1.125.8-2.365.813,1.982.275-.965,2.27-2.1,1.5-1.475.79,1.275,2.766.03,3.377.152.919-2.262-.333-2.075,1.794-1.432-.675-.195,2.522.522,1.44,2.437.74,1.715,2.427,1.777,4.027-.4.933-1.962-2.194-.35-2.049-1.27-2.318-1.4-.838-2.462.238-.247.078,2.7,1.533.85,2.25,1.625.28,1.67,1.878,2,2.887.977,1.141.777-1.261,1.947.112-.74-1.222-3.917-3.441-1.36-2.73-.012-1.23-.462-2.222.322-2.2.775-1.575-.812,3.887.937,1.883.482-.238.6-1.578,1.475.126,1.262,1.4.455,2.4-1.327,1.129.317,1.213,2.385,1.645,2,3.545.412,1.667.987,1.054,1.49.958.395,1.62.617.429.637-.345,1.8.434,1.38,1.628,1.945,2.466,1.242.628-1.78-4.265.355-1.474,2.245,2.273.842,3.223-1.175,2.859,1.275-.115,1.687,1.934,3.282,1.861,1.455.776,2.44,3.755-.067,2.514-.87-.877-3.947-1.962-1.432-.291a57.218,57.218,0,0,1,6.4,3.439c1.6,1.284,2.295,2.752,2.9,3.044-1.345.72-4.057-.577-2.042-.975-1.257-.255-2.67-.967-1.467.785,1.025.961,3.625.858,4.092.967-.4.975-1.075,1.054.015,1.129-1.215.729.39.841.5,1.256Zm-2.485-7.869c-.74-.869-.932-2.494-.132-1.079C27.559,46.919,28.461,49.388,27.281,47.813Zm8.095,5.765C35.839,53.547,35.391,53.97,35.376,53.578Zm-9.265-7.892C26.084,44.374,26.379,46.7,26.112,45.686Zm-.8-1.213C24.377,42.457,26.481,45.044,25.307,44.472Zm-9.75-7.544C16.1,36.763,15.824,37.976,15.557,36.928Zm7.76,4.714C23.652,40.229,23.712,42.83,23.317,41.642Zm-5.482-4.274C17.447,36.589,18.642,38.1,17.834,37.368Zm4.7,1.693c-.88-2.214.625-1.211.195.364Zm-8.115-6.067a7.694,7.694,0,0,1-.835-3.509c.19,1.059,2.01,4.56.892,1.452-1.235-2.606,1.475.846,1.755,1.5.127.645-.762-.177-.16,1.34-1.1-1.729-.65.953-1.652-.779Zm-2.507-1.937C12.019,29.367,12.492,32.214,11.917,31.057Zm1.127.434C13.582,30.216,13.957,33.268,13.044,31.491Zm-2.712-2.354c-.935-1.037-1.61-2,.042-.645.637.028-1.415-2.18.152-.7,1.65.336.815,3.032-.195,1.345Zm1.425-.042C12.3,28.492,12.044,29.689,11.757,29.095Zm.875.317C11.812,27.682,13.632,30.135,12.632,29.412Zm-1.742-1.869c-2.715-2.707,3.412,1.418.442.5Zm7.777,5.067c-1.175-.79-.31-5.56.09-2.3,1.142-.415-.062,1.684.787,1.665-.132,1.326-.515,1.8-.875.633Zm2.875,1.906C21.659,33.077,21.787,35.5,21.542,34.515Zm-.5-.555C21.174,33.346,21.057,34.683,21.042,33.96Zm-9.617-7.306c-1.742-2.7,5.067,2.727,1.117.684C12.129,27.217,11.632,27.172,11.424,26.654Zm5.54,3.293C16.8,27.677,17.332,30.322,16.964,29.947Zm4.2,3.024C21.494,31.676,21.194,33.826,21.169,32.971Zm-9.48-7.348c1.037-.247,4.295,2.043,1.3.656C12.659,25.864,11.949,26.054,11.689,25.623Zm8.9,4.974c.11-2.323.62-1.387.005.331Zm-8.127-5.782c.422-.7-1.122-3.139.222-.877.58.518,1.68.869.707,1.085,1.527,1.511-.372.409-.93-.207Zm7.687,5.056C20.442,27.226,20.407,31.421,20.149,29.871Zm-8.57-7.5C11.9,22.218,11.749,22.854,11.579,22.372Zm2,1.34C14.1,22.5,14.534,25.065,13.584,23.711Zm5.657,3.528C19.237,26.772,19.349,27.918,19.242,27.24Zm-.327-.813C18.129,24.252,19.644,27.576,18.914,26.427ZM18.432,25C18.3,24.1,18.882,26.13,18.432,25Zm.785-1.429c-.54-1.065.68-4.691.815-2.441-.567,1.752-.162,2.732.232.381.732-1.85-.157,3.652-1.05,2.06Zm.8-5.392C20.257,17.857,20.074,18.569,20.022,18.179ZM18.677,47.922C18.357,47.611,18.717,48.121,18.677,47.922Zm2.775,1.572c1.54.446,1.532-.269.137-.479-.75-.785-3.115-1.611-1-.1.14.4.585.39.857.577Zm-5.48-4.078c.85.709,3.2,2.015,1.21.269.672-.874-1.285-1.34-.635-1.923-1.65-1.132-1.3-1.031-.145-1-1.985-.992.285-.919.177-1.429-.765-.168-3.8-1.511-2.012.112-1.815-1.037-.432.387-.98.235-1.857-.566,1.65,1.583-.295,1.051,1.062.944,2.865,2.421.45,1-.32.513,1.727,1.289,2.23,1.681Zm2.9,1.869C22.4,48.558,17.144,45.728,18.872,47.286Zm14.85,10.083C33.771,56.585,33.241,58.042,33.721,57.369Zm1.53.72c.812-.883.033,1.41,1.347-.216.015-1.163-.04-1.85-1.512-.437-.4.252-.585,1.326.165.653ZM11.019,41.031C10.769,39.929,9.269,39.938,11.019,41.031Zm1.63,1.2C12.044,41.1,10.489,41.21,12.649,42.23ZM21.924,48.5c.9.9,4.157.661,1.1.112C22.569,47.858,20.147,48.04,21.924,48.5Zm12.745,8.825C36.064,56.013,33.319,57.907,34.669,57.324Zm2.9,2.231C37.576,59.135,36.969,59.74,37.569,59.555Zm0-.589C39.114,57.134,36.076,59.076,37.571,58.967ZM7.012,37.27c-1.315-2.1-.817-3.049-2.087-4.764-.24-1.317-2.175-4.3-1-1.138C5,33.215,5.32,36.073,7.012,37.27ZM37.086,58.384C39.926,56.327,35.924,57.487,37.086,58.384Zm2.167.953C40.679,57.969,38.354,59.051,39.254,59.337ZM10.537,38.7C10.944,38.026,9.487,38.618,10.537,38.7ZM38.8,58.684c1.377-.995-.315-.841-.25.09Zm-18.677-13.2C20.074,44.814,19.4,45.543,20.124,45.487Zm1.152.745C20.912,45.4,20.714,46.364,21.277,46.232ZM41.011,59.359c1.762-1.429-1.07-.275-.37.269Zm-.675-.364C41.771,57.644,38.819,59.592,40.336,58.995Zm3.45,2.573C44.751,60.844,42.614,61.335,43.786,61.567ZM11.422,38.217c1.292.325,5.165,3.57,2.88.224-1.17-.387-.467-3.6-1.662-3.027.8,1.5.66,2.138-1.022,1.194-2.115-1.157-1.187.572-.775,1.048C10.279,37.8,11.587,38.206,11.422,38.217ZM5.532,33c.23-1.073-2.132-5.9-1.115-2.421C4.782,31.312,4.745,32.7,5.532,33Zm10.81,7.471C15.677,39.851,16.309,40.386,16.342,40.476Zm1.64.426C17.982,39.767,16.169,40.442,17.982,40.9Zm14.2,10.041C31.916,50.164,31.116,50.926,32.186,50.943Zm.682.558C32.769,51.066,32.476,51.585,32.869,51.5ZM38.5,55.478C39.041,55.029,37.826,55.422,38.5,55.478ZM8.475,33.845C10.024,33.173,6.815,33.366,8.475,33.845ZM30.936,49.71C30.919,48.586,29.949,49.99,30.936,49.71ZM7.862,32.248C8.857,31.869,6.942,32,7.862,32.248Zm2.887,1.569C10.732,33.444,10.444,33.957,10.749,33.817ZM45.973,58.031c1.282-.291,4.2.729,4.667-.381-1.552-.042-5.375-1.227-5.555.283l.34.062.55.036Zm-34.3-23.956C11.692,32.934,10.877,34.033,11.669,34.075ZM4.075,28.167C3.73,26,2.762,27.837,4.075,28.167Zm1.81.51C5.907,27.98,4.227,28.05,5.885,28.677Zm1.035.569C6.62,28.974,6.685,29.588,6.92,29.246Zm6.512,4.68C13.737,33.613,12.707,33.694,13.432,33.926Zm-7.2-5.964C6.057,26.323,4.132,27.716,6.232,27.963Zm-3.715-2.7C2.467,24.5,2.157,25.547,2.517,25.261Zm.552-.468C2.98,23.9,2.595,24.905,3.07,24.793Zm3.05,2.043c1.292-.569-2.35-1.177-.262-.109ZM46.953,55.11C47.778,54.261,45.9,54.847,46.953,55.11Zm4.935,2.867C52.218,56.879,51.053,58.12,51.888,57.977ZM6.432,25.045C6.57,23.983,5.41,25.256,6.432,25.045Zm-4.34-3.259c-.232-1.5-.2-4.131,2.03-3.24-2.977.661,2.06,4.148,1.425,1.4,1.25.067,2.45-.83,1.79.532,2.467-.305,4.177-2.7,6.56-2.368a23.482,23.482,0,0,0,5.885-1.32c1.645-.135,3.227-2.119,2.325-3.293a22.813,22.813,0,0,0-7.067.653C12.294,14.785,9.8,16,7.027,16.526c-2.7.406.542,1.121-.23,1.278-1.41.549,1.68.919-.182,1.5-1.15-.247-2.35-.689-1.857-2.046-2.587.373-4.862,1.578-2.817,4.529h.152Zm6.235-3.559c.607-2.505,3.25,2.06.995.331a1.323,1.323,0,0,0-.995-.333Zm.117-1.216C9.319,16.282,8.91,17.42,8.445,17.011Zm1.112.022c.08-1.152,2.545.611.407.415Zm1.52-.687C11.632,15.618,11.237,16.994,11.077,16.346Zm.39-.291c.925-1.244,5.237-.793,2.08-.121-.845-.715-1.495.42-2.08.121Zm5.627-.972C16.954,11.68,19.889,16.293,17.094,15.082Zm1.6-.011c.582-1.715,2.265-.687.27-.345C19,14.909,18.9,15.612,18.692,15.071ZM5.8,24.165C7.547,22.969,3.952,23.128,5.8,24.165Zm1.287.4C7.7,23.84,5.765,24.272,7.092,24.569Zm-3.8-3.027C4.29,20.687,2.115,21.217,3.292,21.542ZM54.8,57.666C54.828,56.671,54.038,58.115,54.8,57.666Zm-5.232-4C49.716,52.515,48.891,53.762,49.566,53.662Zm6.675,4.392c1.392,0,4.22-.485,1.187-.485-.475.084-2.772.067-1.19.485ZM8.225,23.863c1.127-.084,1.765-1.393-.217-1.317-3.075-.356,2.71,1.177-.395.74-.417.308.59.664.612.58Zm.995.566C9.1,23.616,8.87,24.86,9.219,24.429Zm1.175-3.523C10.887,20.225,9.719,20.724,10.394,20.906Zm-3.75-7.029c2.015-.768,4.767-1.628,5.717.378-.967-1.306-.39-2.59.525-.681,1.29,1.931,1.937-.877,1.095-1.527.957,1.334,2.047,1.965.642.084,1.525-2.057-3.057.272-4.1.247-.5.252-5.177,1.337-3.877,1.5Zm1.18-2.531c1.15-.972,3.97.577,2.16-.967C9.809,10.206,6.02,11.551,7.825,11.347Zm4.185.193c1.345.036-.577-2.023,1.022-1.09-.262-.964-1.865-1.143-2.647-1.527C9.942,9.8,11.284,11.551,12.009,11.54ZM8.56,7.28C9.025,6.574,7.745,7.639,8.56,7.28Zm1.71.46c2.165-.322-.55-1.045-.435-.028Zm-3.192-2.8c-1.525-2.231,2.865.376,1.317-1.962C7.09,1.813,5.837,4.287,7.077,4.937ZM26.639,16.75c.7-1.39-2.887-1.872-.47-.49C26.392,16.344,26.342,16.848,26.639,16.75Z" transform="translate(0 -2.386)"/>
</svg>
