<svg xmlns="http://www.w3.org/2000/svg" width="60" height="60" viewBox="0 0 60 60">
  <path id="Icon_awesome-node-js" data-name="Icon awesome-node-js" d="M30.036,60.285a5.787,5.787,0,0,1-2.605-.619L19.145,55.32c-1.235-.619-.631-.833-.228-.952a17.4,17.4,0,0,0,3.747-1.512.672.672,0,0,1,.618.048l6.365,3.346a.865.865,0,0,0,.765,0l24.8-12.692a.692.692,0,0,0,.376-.6V17.578a.7.7,0,0,0-.389-.607L30.412,4.291a.865.865,0,0,0-.765,0L4.87,16.983a.684.684,0,0,0-.389.607V42.962a.65.65,0,0,0,.389.583l6.795,3.477c3.693,1.631,5.949-.286,5.949-2.226V19.745a.676.676,0,0,1,.725-.631h3.142a.684.684,0,0,1,.725.631V44.807c0,4.358-2.686,6.858-7.346,6.858-1.437,0-2.565,0-5.707-1.381l-6.5-3.322A4.561,4.561,0,0,1,.049,42.95V17.578a4.575,4.575,0,0,1,2.605-4.012L27.431.874a6.053,6.053,0,0,1,5.21,0l24.8,12.7a4.561,4.561,0,0,1,2.605,4.012V42.962a4.589,4.589,0,0,1-2.605,4.012l-24.8,12.692A5.746,5.746,0,0,1,30.036,60.285ZM50.058,35.27c0-4.75-3.626-6.012-11.24-6.905C31.11,27.46,30.331,27,30.331,25.4c0-1.322.658-3.084,6.365-3.084,5.09,0,6.97.976,7.748,4.024a.7.7,0,0,0,.7.5h3.223a.745.745,0,0,0,.524-.2.618.618,0,0,0,.188-.488c-.5-5.251-4.432-7.691-12.381-7.691-7.077,0-11.294,2.643-11.294,7.084,0,4.81,4.2,6.143,10.985,6.739,8.124.7,8.756,1.762,8.756,3.179,0,2.453-2.229,3.5-7.453,3.5-6.567,0-8-1.464-8.487-4.358a.691.691,0,0,0-.712-.536H25.282a.671.671,0,0,0-.712.631c0,3.7,2.269,8.12,13.133,8.12,7.842-.012,12.355-2.762,12.355-7.548Z" transform="translate(-0.049 -0.285)"/>
</svg>
