<svg xmlns="http://www.w3.org/2000/svg" width="52.761" height="60.298" viewBox="0 0 52.761 60.298">
  <path id="Icon_awesome-database" data-name="Icon awesome-database" d="M52.761,8.614V14c0,4.744-11.816,8.614-26.381,8.614S0,18.742,0,14V8.614C0,3.87,11.816,0,26.381,0S52.761,3.87,52.761,8.614Zm0,12.114V32.841c0,4.744-11.816,8.614-26.381,8.614S0,37.586,0,32.841V20.728c5.668,3.9,16.041,5.72,26.381,5.72S47.093,24.631,52.761,20.728Zm0,18.843V51.684c0,4.744-11.816,8.614-26.381,8.614S0,56.429,0,51.684V39.571c5.668,3.9,16.041,5.72,26.381,5.72S47.093,43.474,52.761,39.571Z"/>
</svg>
