<svg xmlns="http://www.w3.org/2000/svg" width="54.74" height="63.84" viewBox="0 0 54.74 63.84">
  <path id="Icon_awesome-android" data-name="Icon awesome-android" d="M10.461,26.845V43.353A3.906,3.906,0,0,1,6.541,47.3,4.255,4.255,0,0,1,2.25,43.353V26.845a4.252,4.252,0,0,1,4.291-3.92A3.936,3.936,0,0,1,10.461,26.845ZM12,49.226a4.21,4.21,0,0,0,4.22,4.22h2.837l.043,8.71c0,5.26,7.869,5.217,7.869,0v-8.71h5.3v8.71c0,5.232,7.912,5.246,7.912,0v-8.71h2.88a4.2,4.2,0,0,0,4.191-4.22V23.652H12ZM47.354,22.27H11.844A16.022,16.022,0,0,1,20.91,8.1L18.187,3.068a.549.549,0,1,1,.955-.542L21.908,7.6a19.26,19.26,0,0,1,15.438,0L40.1,2.54a.549.549,0,1,1,.955.542L38.33,8.1a16.059,16.059,0,0,1,9.024,14.17ZM23.02,14.358a1.5,1.5,0,0,0-1.5-1.5,1.5,1.5,0,0,0,0,2.994A1.5,1.5,0,0,0,23.02,14.358Zm16.165,0a1.476,1.476,0,1,0-1.454,1.5A1.488,1.488,0,0,0,39.185,14.358ZM52.7,22.925a3.909,3.909,0,0,0-3.92,3.92V43.353A3.933,3.933,0,0,0,52.7,47.3a4.245,4.245,0,0,0,4.291-3.949V26.845A4.221,4.221,0,0,0,52.7,22.925Z" transform="translate(-2.25 -2.245)"/>
</svg>
